{"glyphs":{"0":{"ha":1039,"x_min":79,"x_max":926,"o":"m 503 951 q 188 828 297 951 q 79 468 79 706 q 188 108 79 231 q 503 -14 296 -14 q 818 108 710 -14 q 926 468 926 231 q 817 828 926 706 q 503 951 708 951 m 503 788 q 702 709 640 788 q 764 469 764 631 q 703 228 764 307 q 503 150 642 150 q 302 228 364 150 q 240 469 240 307 q 302 709 240 631 q 503 788 364 788 "},"1":{"ha":468,"x_min":40,"x_max":357,"o":"m 139 938 l 40 938 l 40 774 l 125 774 q 178 757 163 774 q 193 703 193 740 l 193 0 l 357 0 l 357 714 q 347 817 357 775 q 313 887 338 860 q 245 926 288 914 q 139 938 203 938 "},"2":{"ha":1019,"x_min":93,"x_max":943,"o":"m 661 938 l 124 938 l 124 774 l 665 774 q 751 745 722 774 q 781 669 781 717 q 762 613 781 636 q 693 578 743 589 l 299 488 q 199 451 239 474 q 136 397 160 429 q 103 319 113 364 q 93 218 93 275 l 93 76 q 171 0 93 0 l 918 0 l 918 164 l 275 164 q 257 183 257 164 l 257 231 q 272 297 257 271 q 335 333 286 322 l 725 421 q 891 508 839 447 q 943 672 943 568 q 870 870 943 803 q 661 938 797 938 "},"3":{"ha":946,"x_min":82,"x_max":868,"o":"m 551 938 l 83 938 l 83 774 l 551 774 q 660 742 626 774 q 693 657 693 710 q 658 572 693 599 q 550 544 622 544 l 265 544 l 265 396 l 554 396 q 697 283 697 396 q 663 195 697 226 q 556 164 628 164 l 82 164 l 82 0 l 556 0 q 698 19 639 0 q 794 73 757 39 q 850 153 832 107 q 868 251 868 199 q 833 390 868 336 q 732 471 799 443 q 831 551 797 499 q 865 686 865 603 q 847 786 865 740 q 791 866 829 832 q 694 919 753 900 q 551 938 635 938 "},"4":{"ha":978,"x_min":46,"x_max":867,"o":"m 375 832 l 104 508 q 62 443 78 476 q 46 357 46 410 q 94 236 46 278 q 263 194 143 194 l 701 194 l 701 0 l 867 0 l 867 767 q 828 894 867 850 q 697 938 789 938 l 593 938 q 520 931 551 938 q 464 910 489 924 q 418 878 439 897 q 375 832 397 858 m 246 429 l 501 733 q 538 765 521 757 q 586 774 554 774 l 660 774 q 701 728 701 774 l 701 340 l 292 340 q 244 352 258 340 q 229 386 229 364 q 246 429 229 410 "},"5":{"ha":951,"x_min":106,"x_max":882,"o":"m 831 938 l 183 938 q 106 861 106 938 l 106 497 q 183 421 106 421 l 574 421 q 687 387 656 421 q 718 297 718 353 q 688 200 718 236 q 588 164 658 164 l 110 164 l 110 0 l 582 0 q 719 22 663 0 q 813 83 776 44 q 865 176 849 122 q 882 294 882 231 q 868 400 882 350 q 819 488 854 450 q 722 547 783 525 q 565 569 660 569 l 288 569 q 269 586 269 569 l 269 757 q 288 774 269 774 l 831 774 l 831 938 "},"6":{"ha":990,"x_min":79,"x_max":917,"o":"m 863 938 l 503 938 q 188 822 297 938 q 79 468 79 706 q 106 263 79 350 q 183 117 133 175 q 305 29 233 58 q 465 0 376 0 l 625 0 q 758 23 703 0 q 849 86 814 46 q 901 181 885 126 q 917 299 917 236 q 851 491 917 429 q 640 553 785 553 l 247 553 q 324 722 263 669 q 503 774 385 774 l 863 774 l 863 938 m 244 421 l 624 421 q 722 392 688 421 q 756 300 756 363 q 722 201 756 239 q 618 164 689 164 l 488 164 q 312 224 371 164 q 244 421 253 285 "},"7":{"ha":904,"x_min":40,"x_max":854,"o":"m 628 938 l 40 938 l 40 774 l 608 774 q 661 756 647 774 q 675 715 675 738 q 651 654 675 686 l 168 0 l 374 0 l 776 547 q 835 651 817 604 q 854 746 854 699 q 843 815 854 781 q 806 876 832 849 q 737 920 781 903 q 628 938 693 938 "},"8":{"ha":1008,"x_min":76,"x_max":932,"o":"m 614 938 l 393 938 q 251 919 310 938 q 153 866 192 900 q 97 785 115 832 q 79 681 79 738 q 113 549 79 600 q 213 471 147 497 q 111 392 146 443 q 76 258 76 340 q 94 154 76 201 q 150 73 113 107 q 247 19 188 39 q 389 0 306 0 l 618 0 q 760 19 701 0 q 858 73 819 39 q 914 154 896 107 q 932 258 932 201 q 897 392 932 340 q 794 471 861 443 q 894 549 860 497 q 928 681 928 600 q 910 785 928 738 q 853 866 892 832 q 756 919 815 900 q 614 938 697 938 m 622 163 l 385 163 q 276 194 311 163 q 240 283 240 225 q 385 400 240 400 l 622 400 q 767 283 767 400 q 732 194 767 225 q 622 163 697 163 m 618 542 l 390 542 q 244 656 244 542 q 279 743 244 710 q 389 776 314 776 l 619 776 q 728 743 694 776 q 763 656 763 710 q 618 542 763 542 "},"9":{"ha":990,"x_min":74,"x_max":911,"o":"m 542 938 l 385 938 q 240 915 299 938 q 144 851 181 892 q 90 756 107 811 q 74 639 74 701 q 140 447 74 508 q 349 385 206 385 l 742 385 q 663 215 725 267 q 488 164 600 164 l 179 164 l 179 0 l 488 0 q 801 119 692 0 q 911 483 911 238 q 884 690 911 604 q 808 831 857 776 q 692 912 760 886 q 542 938 624 938 m 233 638 q 267 736 233 699 q 372 774 301 774 l 503 774 q 680 713 621 774 q 746 517 739 651 l 365 517 q 267 546 301 517 q 233 638 233 575 "},"!":{"ha":325,"x_min":78,"x_max":250,"o":"m 250 964 l 78 964 l 101 331 l 228 331 l 250 964 m 243 189 l 85 189 l 85 0 l 243 0 l 243 189 "},"#":{"ha":865,"x_min":58,"x_max":806,"o":"m 317 938 l 215 938 l 215 697 l 58 697 l 58 596 l 215 596 l 215 339 l 58 339 l 58 238 l 215 238 l 215 0 l 317 0 l 317 238 l 547 238 l 547 0 l 649 0 l 649 238 l 806 238 l 806 339 l 649 339 l 649 596 l 806 596 l 806 697 l 649 697 l 649 938 l 547 938 l 547 697 l 317 697 l 317 938 m 317 339 l 317 596 l 547 596 l 547 339 l 317 339 "},"$":{"ha":861,"x_min":93,"x_max":768,"o":"m 403 824 l 332 824 q 149 766 204 824 q 93 611 93 708 q 104 530 93 568 q 144 463 115 492 q 221 417 172 433 q 346 400 269 400 l 519 400 q 603 375 582 400 q 624 315 624 350 q 602 256 624 279 q 528 233 581 233 l 101 233 l 101 90 l 403 90 l 403 -82 l 503 -82 l 503 90 l 528 90 q 638 107 592 90 q 713 153 683 124 q 755 223 742 182 q 768 314 768 264 q 757 392 768 356 q 717 456 746 429 q 640 499 689 483 q 514 515 590 515 l 342 515 q 259 540 281 515 q 238 600 238 564 q 260 659 238 636 q 333 682 282 682 l 739 682 l 739 824 l 503 824 l 503 1019 l 403 1019 l 403 824 "},"%":{"ha":1174,"x_min":40,"x_max":1133,"o":"m 40 0 m 1007 938 l 897 938 l 161 0 l 274 0 l 1007 938 m 900 522 q 728 456 788 522 q 668 257 668 389 q 727 59 668 126 q 900 -8 786 -8 q 1073 59 1013 -8 q 1133 257 1133 126 q 1073 456 1133 389 q 900 522 1013 522 m 900 428 q 1006 387 974 428 q 1039 258 1039 346 q 1006 129 1039 171 q 900 88 974 88 q 793 129 825 88 q 761 258 761 171 q 793 387 761 346 q 900 428 825 428 m 272 944 q 100 878 160 944 q 40 679 40 811 q 99 481 40 549 q 272 414 158 414 q 445 481 385 414 q 506 679 506 549 q 445 878 506 811 q 272 944 385 944 m 272 850 q 378 809 346 850 q 411 681 411 768 q 378 551 411 593 q 272 510 346 510 q 165 551 197 510 q 133 681 133 593 q 165 809 133 768 q 272 850 197 850 "},"&":{"ha":1063,"x_min":60,"x_max":1021,"o":"m 585 1051 l 454 1051 q 352 1033 396 1051 q 278 981 308 1014 q 232 906 247 949 q 217 814 217 863 q 238 703 217 751 q 296 615 260 656 l 344 558 l 306 540 q 185 476 232 507 q 110 413 138 444 q 71 344 82 381 q 60 261 60 307 q 79 144 60 193 q 133 63 99 94 q 212 15 167 31 q 307 0 257 0 l 465 0 q 533 4 501 0 q 596 22 565 8 q 658 59 626 35 q 725 124 689 83 l 833 0 l 1021 0 l 814 236 l 1017 506 l 843 506 l 721 342 l 556 532 l 642 575 q 778 678 738 622 q 818 814 818 735 q 804 906 818 863 q 761 981 790 949 q 688 1033 732 1014 q 585 1051 644 1051 m 467 143 l 339 143 q 248 181 281 143 q 215 282 215 219 q 222 326 215 307 q 248 365 229 346 q 299 402 267 383 q 379 446 331 421 l 424 468 l 633 229 q 551 160 589 178 q 467 143 514 143 m 375 799 q 400 880 375 847 q 482 913 425 913 l 565 913 q 647 878 624 913 q 671 799 671 844 q 644 719 671 749 q 564 664 617 689 l 478 622 l 431 676 q 389 734 403 707 q 375 799 375 761 "},"(":{"ha":547,"x_min":113,"x_max":508,"o":"m 508 1243 l 488 1243 q 312 1215 383 1243 q 196 1128 240 1188 q 132 975 151 1068 q 113 751 113 882 l 113 125 q 132 -99 113 -6 q 196 -251 151 -192 q 312 -339 240 -311 q 488 -367 383 -367 l 508 -367 l 508 -265 l 488 -265 q 359 -247 411 -265 q 274 -184 307 -228 q 228 -67 242 -140 q 214 113 214 6 l 214 764 q 228 944 214 871 q 274 1060 242 1017 q 359 1123 307 1104 q 488 1142 411 1142 l 508 1142 l 508 1243 "},")":{"ha":547,"x_min":39,"x_max":435,"o":"m 39 -367 l 60 -367 q 235 -339 164 -367 q 351 -251 307 -311 q 415 -99 396 -192 q 435 125 435 -6 l 435 751 q 415 975 435 882 q 351 1128 396 1068 q 235 1215 307 1188 q 60 1243 164 1243 l 39 1243 l 39 1142 l 60 1142 q 188 1123 136 1142 q 273 1060 240 1104 q 319 944 306 1017 q 333 764 333 871 l 333 113 q 319 -67 333 6 q 273 -184 306 -140 q 188 -247 240 -228 q 60 -265 136 -265 l 39 -265 l 39 -367 "},"*":{"ha":775,"x_min":64,"x_max":711,"o":"m 351 768 l 113 919 l 64 836 l 317 707 l 65 575 l 114 492 l 354 646 l 342 363 l 436 363 l 424 646 l 663 494 l 711 576 l 458 707 l 710 838 l 663 921 l 422 768 l 435 1051 l 339 1051 l 351 768 "},",":{"ha":357,"x_min":39,"x_max":268,"o":"m 268 189 l 110 189 l 110 -53 q 56 -112 110 -112 l 39 -112 l 39 -233 l 88 -233 q 268 -36 268 -233 l 268 189 "},".":{"ha":336,"x_min":89,"x_max":247,"o":"m 247 189 l 89 189 l 89 0 l 247 0 l 247 189 "},"/":{"ha":632,"x_min":15,"x_max":617,"o":"m 617 1051 l 475 1051 l 15 -294 l 158 -294 l 617 1051 "},":":{"ha":378,"x_min":110,"x_max":268,"o":"m 110 0 m 268 714 l 110 714 l 110 525 l 268 525 l 268 714 m 268 189 l 110 189 l 110 0 l 268 0 l 268 189 "},"@":{"ha":1064,"x_min":107,"x_max":957,"o":"m 722 843 l 365 843 q 175 772 243 843 q 107 553 107 700 l 107 -4 q 175 -223 107 -151 q 365 -294 243 -294 l 951 -294 l 951 -176 l 365 -176 q 258 -135 296 -176 q 221 -6 221 -94 l 221 554 q 258 684 221 643 q 365 725 296 725 l 711 725 q 811 692 781 725 q 842 583 842 658 l 842 532 l 593 532 q 423 477 481 532 q 365 288 365 422 l 365 236 q 423 48 365 104 q 593 -8 481 -8 l 729 -8 q 899 48 842 -8 q 957 236 957 104 l 957 590 q 900 782 957 721 q 722 843 843 843 m 729 110 l 593 110 q 509 138 538 110 q 481 236 481 167 l 481 288 q 509 386 481 358 q 593 414 538 414 l 842 414 l 842 236 q 813 138 842 167 q 729 110 785 110 "},"A":{"ha":1089,"x_min":26,"x_max":1064,"o":"m 207 0 l 504 754 q 551 786 518 786 q 597 754 585 786 l 882 0 l 1064 0 l 747 833 q 674 927 722 900 q 553 954 626 954 q 430 927 478 954 q 356 833 382 900 l 26 0 l 207 0 "},"B":{"ha":999,"x_min":114,"x_max":922,"o":"m 604 938 l 192 938 q 114 861 114 938 l 114 76 q 192 0 114 0 l 608 0 q 751 19 692 0 q 848 73 810 39 q 904 154 886 107 q 922 258 922 201 q 886 392 922 340 q 783 472 850 444 q 884 549 850 499 q 918 681 918 599 q 900 785 918 738 q 844 866 882 832 q 747 919 806 900 q 604 938 688 938 m 275 178 l 275 406 l 613 406 q 757 285 757 406 q 722 194 757 226 q 613 163 688 163 l 293 163 q 275 178 275 163 m 275 542 l 275 760 q 293 776 275 776 l 610 776 q 719 743 685 776 q 753 654 753 710 q 608 542 753 542 l 275 542 "},"C":{"ha":947,"x_min":79,"x_max":865,"o":"m 865 938 l 503 938 q 188 822 297 938 q 79 468 79 706 q 188 116 79 232 q 503 0 297 0 l 865 0 l 865 164 l 503 164 q 304 235 365 164 q 243 468 243 307 q 305 702 243 631 q 503 774 367 774 l 865 774 l 865 938 "},"D":{"ha":1024,"x_min":114,"x_max":944,"o":"m 522 938 l 192 938 q 114 861 114 938 l 114 76 q 192 0 114 0 l 522 0 q 837 115 729 0 q 944 468 944 231 q 837 822 944 707 q 522 938 729 938 m 278 181 l 278 757 q 296 774 278 774 l 522 774 q 720 702 660 774 q 781 469 781 631 q 719 236 781 308 q 522 164 658 164 l 296 164 q 278 181 278 164 "},"E":{"ha":963,"x_min":76,"x_max":864,"o":"m 863 938 l 393 938 q 251 919 310 938 q 153 866 192 900 q 97 785 115 832 q 79 682 79 738 q 211 471 79 525 q 111 390 146 443 q 76 256 76 336 q 94 154 76 201 q 149 73 111 107 q 247 19 188 39 q 389 0 306 0 l 864 0 l 864 164 l 389 164 q 282 195 317 164 q 247 282 247 226 q 390 396 247 396 l 856 396 l 856 544 l 394 544 q 251 656 251 544 q 285 742 251 710 q 393 774 318 774 l 863 774 l 863 938 "},"F":{"ha":921,"x_min":106,"x_max":840,"o":"m 840 938 l 451 938 q 292 913 358 938 q 185 846 226 889 q 124 744 143 803 q 106 614 106 685 l 106 0 l 269 0 l 269 371 l 835 371 l 835 526 l 269 526 l 269 615 q 278 677 269 649 q 310 727 288 706 q 369 761 332 749 q 463 774 407 774 l 840 774 l 840 938 "},"G":{"ha":1013,"x_min":79,"x_max":939,"o":"m 889 938 l 503 938 q 188 822 297 938 q 79 468 79 706 q 188 116 79 232 q 503 0 297 0 l 647 0 q 781 23 726 0 q 872 85 836 46 q 923 178 907 125 q 939 293 939 232 q 878 487 939 415 q 690 558 817 558 l 465 558 l 465 415 l 674 415 q 760 384 732 415 q 789 296 789 353 q 758 201 789 238 q 658 164 728 164 l 503 164 q 304 235 365 164 q 243 468 243 307 q 305 702 243 631 q 503 774 367 774 l 889 774 l 889 938 "},"H":{"ha":1035,"x_min":114,"x_max":922,"o":"m 278 938 l 114 938 l 114 0 l 278 0 l 278 392 l 757 392 l 757 0 l 922 0 l 922 938 l 757 938 l 757 556 l 278 556 l 278 938 "},"I":{"ha":390,"x_min":114,"x_max":278,"o":"m 278 938 l 114 938 l 114 0 l 278 0 l 278 938 "},"J":{"ha":810,"x_min":40,"x_max":706,"o":"m 706 938 l 540 938 l 540 325 q 531 262 540 292 q 500 210 522 232 q 441 176 478 189 q 349 164 404 164 l 40 164 l 40 0 l 358 0 q 517 24 451 0 q 625 92 583 49 q 686 194 667 135 q 706 324 706 253 l 706 938 "},"K":{"ha":983,"x_min":114,"x_max":956,"o":"m 278 938 l 114 938 l 114 0 l 278 0 l 278 392 l 368 392 q 476 388 435 392 q 546 372 518 385 q 592 338 574 360 q 629 278 610 315 l 772 0 l 956 0 l 804 294 q 764 365 783 335 q 723 416 744 394 q 676 452 701 438 q 618 475 651 467 q 713 542 676 500 q 781 646 749 583 l 928 938 l 751 938 l 608 657 q 572 595 589 618 q 529 560 554 572 q 466 544 504 547 q 368 540 428 540 l 278 540 l 278 938 "},"L":{"ha":864,"x_min":104,"x_max":824,"o":"m 268 938 l 104 938 l 104 324 q 123 194 104 253 q 183 92 142 135 q 291 24 225 49 q 450 0 357 0 l 824 0 l 824 164 l 460 164 q 367 176 404 164 q 308 210 331 189 q 277 262 286 232 q 268 325 268 292 l 268 938 "},"M":{"ha":1531,"x_min":113,"x_max":1418,"o":"m 275 0 l 275 736 q 292 780 275 764 q 342 796 310 796 q 385 783 369 796 q 407 746 401 769 l 540 172 q 615 32 561 81 q 767 -17 668 -17 q 915 31 864 -17 q 989 172 967 79 l 1124 746 q 1144 783 1129 769 q 1189 796 1160 796 q 1238 780 1221 796 q 1256 736 1256 764 l 1256 0 l 1418 0 l 1418 744 q 1363 897 1418 839 q 1193 954 1307 954 q 1037 906 1092 954 q 963 769 982 858 l 831 196 q 768 143 817 143 q 706 196 718 143 l 574 769 q 496 906 554 858 q 338 954 438 954 q 168 897 224 954 q 113 744 113 839 l 113 0 l 275 0 "},"N":{"ha":1221,"x_min":113,"x_max":1110,"o":"m 276 0 l 276 742 q 291 781 276 767 q 333 796 306 796 q 392 756 374 796 l 665 157 q 699 85 679 117 q 745 30 718 53 q 809 -5 772 7 q 894 -17 846 -17 q 1056 40 1003 -17 q 1110 189 1110 96 l 1110 938 l 944 938 l 944 196 q 930 158 944 172 q 889 143 915 143 q 851 154 865 143 q 829 182 838 165 l 556 781 q 476 908 526 861 q 328 954 425 954 q 165 898 218 954 q 113 750 113 842 l 113 0 l 276 0 "},"O":{"ha":1133,"x_min":79,"x_max":1054,"o":"m 631 938 l 503 938 q 188 821 297 938 q 79 467 79 704 q 188 115 79 231 q 503 0 297 0 l 631 0 q 945 115 836 0 q 1054 467 1054 231 q 945 821 1054 704 q 631 938 836 938 m 503 774 l 631 774 q 828 701 767 774 q 889 468 889 629 q 827 235 889 307 q 631 164 765 164 l 503 164 q 304 235 365 164 q 243 467 243 306 q 305 701 243 629 q 503 774 367 774 "},"P":{"ha":943,"x_min":111,"x_max":893,"o":"m 592 938 l 111 938 l 111 774 l 599 774 q 697 737 665 774 q 728 649 728 700 q 720 601 728 624 q 697 560 713 578 q 657 531 682 542 q 597 519 632 519 l 260 519 q 147 485 182 519 q 113 371 113 450 l 113 0 l 276 0 l 276 339 q 300 363 276 363 l 592 363 q 731 389 674 363 q 825 457 789 415 q 877 551 861 499 q 893 657 893 604 q 876 764 893 713 q 822 853 858 815 q 728 915 785 892 q 592 938 671 938 "},"Q":{"ha":1133,"x_min":79,"x_max":1054,"o":"m 631 938 l 503 938 q 188 822 297 938 q 79 468 79 706 q 188 116 79 232 q 503 0 297 0 l 631 0 q 660 0 646 0 q 690 3 675 0 l 763 -147 l 928 -147 l 839 39 q 999 194 944 88 q 1054 468 1054 300 q 945 822 1054 706 q 631 938 836 938 m 685 363 l 519 363 l 614 164 l 503 164 q 304 235 365 164 q 243 468 243 307 q 305 701 243 629 q 503 774 367 774 l 631 774 q 828 701 767 774 q 889 468 889 629 q 860 288 889 356 q 767 189 831 219 l 685 363 "},"R":{"ha":992,"x_min":111,"x_max":940,"o":"m 619 938 l 111 938 l 111 774 l 625 774 q 724 737 693 774 q 756 650 756 700 q 748 601 756 625 q 725 560 740 578 q 685 531 710 542 q 625 519 660 519 l 260 519 q 147 485 182 519 q 113 371 113 450 l 113 0 l 276 0 l 276 339 q 300 363 276 363 l 544 363 l 758 0 l 940 0 l 722 375 q 814 419 776 390 q 875 487 851 449 q 910 569 899 525 q 921 657 921 613 q 903 764 921 713 q 849 853 886 815 q 756 915 813 892 q 619 938 699 938 "},"S":{"ha":976,"x_min":71,"x_max":908,"o":"m 838 938 l 363 938 q 229 917 285 938 q 138 861 174 897 q 87 776 103 825 q 71 668 71 726 q 84 571 71 619 q 131 483 97 522 q 225 421 165 444 q 379 397 285 397 l 597 397 q 669 388 640 397 q 714 362 697 378 q 738 324 731 346 q 744 281 744 303 q 713 197 744 229 q 615 164 682 164 l 88 164 l 88 0 l 610 0 q 747 21 690 0 q 839 78 803 42 q 892 165 875 115 q 908 275 908 215 q 895 375 908 325 q 847 464 882 425 q 750 527 811 503 q 593 551 689 551 l 374 551 q 306 560 332 551 q 263 585 279 569 q 241 622 247 601 q 235 663 235 642 q 264 742 235 711 q 357 774 293 774 l 838 774 l 838 938 "},"T":{"ha":793,"x_min":40,"x_max":753,"o":"m 753 938 l 40 938 l 40 774 l 314 774 l 314 0 l 479 0 l 479 774 l 753 774 l 753 938 "},"U":{"ha":1017,"x_min":107,"x_max":911,"o":"m 274 938 l 107 938 l 107 299 q 410 0 107 0 l 607 0 q 835 75 758 0 q 911 299 911 150 l 911 938 l 750 938 l 750 311 q 713 202 750 240 q 596 164 675 164 l 429 164 q 310 202 347 164 q 274 311 274 240 l 274 938 "},"V":{"ha":1089,"x_min":26,"x_max":1064,"o":"m 207 938 l 26 938 l 340 104 q 417 9 367 35 q 538 -17 468 -17 q 659 10 611 -17 q 733 104 707 38 l 1064 938 l 882 938 l 583 183 q 538 151 569 151 q 492 183 504 151 l 207 938 "},"W":{"ha":1453,"x_min":44,"x_max":1408,"o":"m 217 938 l 44 938 l 125 196 q 144 110 131 149 q 183 42 158 71 q 247 -1 208 14 q 339 -17 285 -17 q 487 31 433 -17 q 560 174 540 78 l 669 746 q 726 796 679 796 q 783 746 775 796 l 886 174 q 958 28 904 74 q 1101 -17 1013 -17 q 1196 -1 1157 -17 q 1261 43 1235 15 q 1301 110 1288 71 q 1321 196 1315 150 l 1408 938 l 1238 938 l 1158 206 q 1142 159 1156 175 q 1101 143 1129 143 q 1042 194 1050 143 l 938 769 q 870 908 921 861 q 728 954 819 954 q 583 908 636 954 q 513 769 531 861 l 401 194 q 343 143 392 143 q 302 159 315 143 q 286 206 289 175 l 217 938 "},"X":{"ha":1085,"x_min":26,"x_max":1060,"o":"m 265 938 l 65 938 l 446 489 l 26 0 l 229 0 l 549 372 l 860 0 l 1060 0 l 656 476 l 1057 938 l 854 938 l 553 592 l 265 938 "},"Y":{"ha":957,"x_min":18,"x_max":939,"o":"m 217 938 l 18 938 l 396 404 l 396 0 l 561 0 l 561 404 l 939 938 l 744 938 l 479 536 l 217 938 "},"Z":{"ha":1032,"x_min":79,"x_max":956,"o":"m 728 938 l 113 938 l 113 774 l 717 774 q 770 757 753 774 q 788 713 788 740 q 739 643 788 663 l 231 425 q 117 340 154 393 q 79 206 79 286 q 136 53 79 107 q 306 0 193 0 l 935 0 l 935 164 l 317 164 q 265 181 282 164 q 247 225 247 197 q 260 267 247 249 q 294 294 272 285 l 806 513 q 918 598 881 544 q 956 732 956 651 q 898 884 956 831 q 728 938 840 938 "},"[":{"ha":547,"x_min":114,"x_max":508,"o":"m 508 1243 l 114 1243 l 114 -367 l 508 -367 l 508 -265 l 215 -265 l 215 1142 l 508 1142 l 508 1243 "},"]":{"ha":547,"x_min":39,"x_max":433,"o":"m 39 -367 l 433 -367 l 433 1243 l 39 1243 l 39 1142 l 332 1142 l 332 -265 l 39 -265 l 39 -367 "},"^":{"ha":743,"x_min":71,"x_max":669,"o":"m 181 507 l 356 944 q 371 954 360 954 q 386 944 381 954 l 560 510 l 669 510 l 474 990 q 435 1038 460 1024 q 371 1051 411 1051 q 306 1038 331 1051 q 268 990 282 1024 l 71 507 l 181 507 "},"_":{"ha":714,"x_min":0,"x_max":719,"o":"m 719 -189 l 0 -189 l 0 -294 l 719 -294 l 719 -189 "},"a":{"ha":933,"x_min":90,"x_max":831,"o":"m 575 733 l 135 733 l 135 592 l 574 592 q 660 563 635 592 q 686 490 686 533 l 686 435 l 338 435 q 222 420 269 435 q 146 378 175 406 q 103 313 117 351 q 90 224 90 274 q 148 60 90 119 q 336 0 206 0 l 679 0 q 755 8 725 0 q 801 34 785 17 q 824 79 818 51 q 831 147 831 107 l 831 492 q 817 588 831 543 q 772 665 803 632 q 692 715 740 697 q 575 733 643 733 m 646 143 l 338 143 q 258 167 282 143 q 235 232 235 192 q 258 295 235 272 q 340 318 282 318 l 686 318 l 686 181 q 646 143 686 143 "},"b":{"ha":965,"x_min":106,"x_max":894,"o":"m 253 1051 l 106 1051 l 106 314 q 174 77 106 154 q 375 0 242 0 l 578 0 q 809 90 724 0 q 894 367 894 181 q 809 642 894 551 q 578 733 724 733 l 253 733 l 253 1051 m 253 592 l 563 592 q 702 539 658 592 q 746 367 746 486 q 702 195 746 247 q 563 143 658 143 l 418 143 q 290 185 328 143 q 253 321 253 226 l 253 592 "},"c":{"ha":836,"x_min":71,"x_max":767,"o":"m 767 733 l 389 733 q 156 643 242 733 q 71 367 71 553 q 156 90 71 181 q 389 0 242 0 l 767 0 l 767 143 l 403 143 q 263 195 307 143 q 219 367 219 247 q 263 539 219 486 q 403 592 307 592 l 767 592 l 767 733 "},"d":{"ha":965,"x_min":71,"x_max":861,"o":"m 861 1051 l 713 1051 l 713 733 l 389 733 q 156 643 242 733 q 71 367 71 553 q 156 90 71 181 q 389 0 242 0 l 592 0 q 792 77 724 0 q 861 314 861 154 l 861 1051 m 549 143 l 403 143 q 263 195 307 143 q 219 367 219 247 q 263 539 219 486 q 403 592 307 592 l 713 592 l 713 321 q 675 185 713 226 q 549 143 638 143 "},"e":{"ha":906,"x_min":90,"x_max":831,"o":"m 583 733 l 346 733 q 228 715 276 733 q 149 665 181 697 q 104 588 118 632 q 90 492 90 543 l 90 242 q 104 145 90 189 q 149 69 118 101 q 228 18 181 36 q 346 0 276 0 l 794 0 l 794 143 l 346 143 q 259 172 285 143 q 233 244 233 200 l 233 297 l 582 297 q 774 352 717 297 q 831 508 831 407 q 772 674 831 615 q 583 733 714 733 m 233 413 l 233 490 q 259 563 233 533 q 346 592 285 592 l 582 592 q 661 567 636 592 q 686 500 686 542 q 662 436 686 460 q 578 413 638 413 l 233 413 "},"f":{"ha":521,"x_min":32,"x_max":483,"o":"m 132 733 l 32 733 l 32 592 l 132 592 l 132 0 l 281 0 l 281 592 l 483 592 l 483 733 l 281 733 l 281 807 q 303 893 281 869 q 379 917 326 917 l 481 917 l 481 1051 l 349 1051 q 251 1039 292 1051 q 183 997 210 1026 q 144 919 157 968 q 132 799 132 871 l 132 733 "},"g":{"ha":961,"x_min":71,"x_max":861,"o":"m 592 733 l 389 733 q 156 647 242 733 q 71 383 71 561 q 156 117 71 204 q 389 31 242 31 l 713 31 l 713 -3 q 681 -117 713 -82 q 567 -151 649 -151 l 147 -151 l 147 -293 l 583 -293 q 713 -277 660 -293 q 799 -226 767 -261 q 847 -136 832 -192 q 861 -3 861 -81 l 861 419 q 792 656 861 579 q 592 733 724 733 m 219 378 q 263 541 219 490 q 403 592 307 592 l 549 592 q 675 551 638 592 q 713 421 713 511 l 713 164 l 403 164 q 263 215 307 164 q 219 378 219 265 "},"h":{"ha":982,"x_min":106,"x_max":881,"o":"m 253 1051 l 106 1051 l 106 0 l 253 0 l 253 592 l 511 592 q 679 544 626 592 q 732 413 732 497 l 732 0 l 881 0 l 881 413 q 789 649 881 564 q 511 733 697 733 l 253 733 l 253 1051 "},"i":{"ha":358,"x_min":106,"x_max":254,"o":"m 106 0 m 253 733 l 106 733 l 106 0 l 253 0 l 253 733 m 254 1010 l 106 1010 l 106 839 l 254 839 l 254 1010 "},"j":{"ha":375,"x_min":-75,"x_max":269,"o":"m 0 0 m 269 733 l 121 733 l 121 -43 q 98 -129 121 -106 q 21 -153 75 -153 l -75 -153 l -75 -294 l 54 -294 q 151 -282 110 -294 q 218 -240 192 -269 q 257 -162 244 -211 q 269 -42 269 -114 l 269 733 m 269 1010 l 121 1010 l 121 839 l 269 839 l 269 1010 "},"k":{"ha":836,"x_min":106,"x_max":810,"o":"m 253 1051 l 106 1051 l 106 0 l 253 0 l 253 306 l 321 306 q 401 302 369 306 q 453 290 432 299 q 490 263 475 281 q 522 217 506 246 l 644 0 l 810 0 l 678 231 q 613 323 644 289 q 528 372 581 357 q 601 423 572 392 q 658 503 631 454 l 786 733 l 626 733 l 504 513 q 474 467 488 483 q 440 442 460 450 q 392 431 421 433 q 321 429 364 429 l 253 429 l 253 1051 "},"l":{"ha":358,"x_min":106,"x_max":253,"o":"m 253 1051 l 106 1051 l 106 0 l 253 0 l 253 1051 "},"m":{"ha":1433,"x_min":106,"x_max":1333,"o":"m 963 733 l 208 733 q 129 709 153 733 q 106 619 106 685 l 106 0 l 253 0 l 253 571 q 271 592 253 592 l 643 592 l 643 0 l 792 0 l 792 592 l 964 592 q 1133 546 1081 592 q 1185 413 1185 500 l 1185 0 l 1333 0 l 1333 413 q 1242 649 1333 565 q 963 733 1150 733 "},"n":{"ha":982,"x_min":106,"x_max":881,"o":"m 511 733 l 208 733 q 129 709 153 733 q 106 619 106 685 l 106 0 l 253 0 l 253 571 q 271 592 253 592 l 511 592 q 680 546 628 592 q 732 413 732 500 l 732 0 l 881 0 l 881 413 q 790 649 881 565 q 511 733 699 733 "},"o":{"ha":932,"x_min":71,"x_max":861,"o":"m 543 733 l 389 733 q 156 643 242 733 q 71 367 71 553 q 156 90 71 181 q 389 0 242 0 l 543 0 q 775 90 689 0 q 861 367 861 181 q 775 642 861 551 q 543 733 689 733 m 403 592 l 529 592 q 669 539 625 592 q 713 367 713 486 q 669 195 713 247 q 529 143 625 143 l 403 143 q 263 195 307 143 q 219 367 219 247 q 263 539 219 486 q 403 592 307 592 "},"p":{"ha":963,"x_min":103,"x_max":892,"o":"m 575 733 l 372 733 q 171 656 239 733 q 103 419 103 579 l 103 -294 l 250 -294 l 250 0 l 575 0 q 806 90 721 0 q 892 367 892 181 q 806 642 892 551 q 575 733 721 733 m 250 143 l 250 413 q 288 550 250 508 q 415 592 325 592 l 560 592 q 699 539 656 592 q 743 367 743 486 q 699 195 743 247 q 560 143 656 143 l 250 143 "},"q":{"ha":963,"x_min":71,"x_max":861,"o":"m 592 733 l 389 733 q 156 643 242 733 q 71 367 71 553 q 156 90 71 181 q 389 0 242 0 l 713 0 l 713 -294 l 861 -294 l 861 419 q 792 656 861 579 q 592 733 724 733 m 219 367 q 263 539 219 486 q 403 592 307 592 l 549 592 q 675 550 638 592 q 713 413 713 508 l 713 143 l 403 143 q 263 195 307 143 q 219 367 219 247 "},"r":{"ha":643,"x_min":104,"x_max":604,"o":"m 604 733 l 303 733 q 149 682 194 733 q 104 519 104 631 l 104 0 l 251 0 l 251 497 q 346 592 251 592 l 604 592 l 604 733 "},"s":{"ha":814,"x_min":71,"x_max":746,"o":"m 717 733 l 310 733 q 126 676 182 733 q 71 519 71 618 q 82 439 71 478 q 122 370 93 400 q 199 323 150 340 q 324 306 247 306 l 497 306 q 577 287 553 306 q 601 224 601 268 q 579 162 601 181 q 506 143 557 143 l 79 143 l 79 0 l 506 0 q 615 17 569 0 q 690 63 661 33 q 733 133 719 92 q 746 222 746 174 q 735 303 746 265 q 695 368 724 340 q 617 413 667 396 q 492 429 568 429 l 319 429 q 237 449 258 429 q 215 508 215 469 q 238 571 215 550 q 311 592 260 592 l 717 592 l 717 733 "},"t":{"ha":521,"x_min":32,"x_max":483,"o":"m 132 733 l 32 733 l 32 592 l 132 592 l 132 253 q 144 132 132 181 q 183 54 157 83 q 251 13 210 25 q 349 0 292 0 l 481 0 l 481 135 l 379 135 q 303 158 326 135 q 281 244 281 182 l 281 592 l 483 592 l 483 733 l 281 733 l 281 907 l 132 907 l 132 733 "},"u":{"ha":975,"x_min":101,"x_max":874,"o":"m 250 733 l 101 733 l 101 289 q 122 172 101 225 q 182 81 142 119 q 281 22 222 43 q 419 0 340 0 l 556 0 q 694 22 635 0 q 793 81 753 43 q 853 172 833 119 q 874 289 874 225 l 874 733 l 729 733 l 729 294 q 683 186 729 229 q 550 143 638 143 l 431 143 q 297 186 343 143 q 250 294 250 229 l 250 733 "},"v":{"ha":940,"x_min":26,"x_max":914,"o":"m 182 733 l 26 733 l 296 79 q 358 6 317 28 q 463 -17 399 -17 q 566 5 525 -17 q 631 79 607 26 l 914 733 l 756 733 l 501 144 q 463 122 492 122 q 426 144 435 122 l 182 733 "},"w":{"ha":1357,"x_min":42,"x_max":1315,"o":"m 201 733 l 42 733 l 118 153 q 136 84 124 115 q 172 31 149 53 q 230 -4 194 8 q 317 -17 265 -17 q 453 21 404 -17 q 519 135 501 58 l 624 581 q 678 617 632 617 q 713 608 699 617 q 732 581 728 600 l 831 135 q 894 21 847 58 q 1028 -17 942 -17 q 1175 30 1128 -17 q 1233 153 1222 76 l 1315 733 l 1156 733 l 1079 161 q 1065 126 1076 138 q 1029 114 1054 114 q 974 154 982 114 l 875 599 q 813 710 858 672 q 679 747 767 747 q 543 710 592 747 q 478 599 494 672 l 374 154 q 356 124 368 135 q 319 114 344 114 q 281 126 293 114 q 267 161 269 138 l 201 733 "},"x":{"ha":946,"x_min":26,"x_max":919,"o":"m 236 733 l 50 733 l 383 382 l 26 0 l 210 0 l 474 282 l 732 0 l 919 0 l 571 368 l 915 733 l 732 733 l 479 468 l 236 733 "},"y":{"ha":899,"x_min":26,"x_max":872,"o":"m 872 733 l 715 733 l 467 157 l 447 157 q 418 163 426 157 q 403 188 410 168 l 182 733 l 26 733 l 272 117 q 319 47 290 68 q 410 26 347 26 l 272 -294 l 431 -294 l 872 733 "},"z":{"ha":867,"x_min":71,"x_max":797,"o":"m 608 733 l 97 733 l 97 592 l 600 592 q 657 549 657 592 q 649 519 657 533 q 618 497 642 506 l 196 346 q 101 276 132 322 q 71 168 71 231 q 117 46 71 92 q 260 0 164 0 l 782 0 l 782 142 l 268 142 q 213 186 213 142 q 251 236 213 221 l 672 389 q 764 453 731 410 q 797 565 797 497 q 751 688 797 642 q 608 733 704 733 "}}}
